<svg width="434" height="66" viewBox="0 0 434 66" fill="none" xmlns="http://www.w3.org/2000/svg">
<g opacity="0.4">
<path d="M79.7364 0.289307V0.339641H55.7115C53.9352 5.25556 52.1462 10.1694 50.3447 15.0811H50.2598C52.0435 10.1515 53.8272 5.21256 55.6486 0.2956L79.7364 0.289307Z" fill="url(#paint0_linear_537_2325)"/>
</g>
<path d="M74.635 15.0654L80.071 0.0786133H55.6813C54.769 2.56383 53.8598 5.06059 52.9538 7.56888C52.0478 10.0772 51.1491 12.5802 50.2578 15.078L74.635 15.0654Z" fill="url(#paint1_linear_537_2325)"/>
<path d="M53.0772 0.00317383L49.6546 9.79935L47.8142 15.0655H27.102C26.9667 15.0655 26.8377 15.0655 26.7087 15.0655C26.3825 15.0888 26.0592 15.1425 25.743 15.2259C25.1706 15.3679 24.6255 15.6028 24.1291 15.9212C23.7954 16.1339 23.4853 16.3817 23.2043 16.6604C22.7366 17.1187 22.3561 17.658 22.0812 18.2522C21.8867 18.6519 21.744 19.0748 21.6565 19.5106C21.4062 20.7023 21.5531 21.9431 22.0749 23.0434C22.2123 23.3332 22.3755 23.6101 22.5625 23.8707C22.7461 24.1328 22.9513 24.3791 23.176 24.6069C23.2986 24.7264 23.4276 24.8397 23.5566 24.9466C23.6856 25.0536 23.8271 25.1479 23.9656 25.2612C24.104 25.3744 24.2801 25.4562 24.4217 25.5443L24.6388 25.6639C24.752 25.7205 24.8621 25.774 24.9817 25.8212L25.1232 25.8778C25.1313 25.8809 25.1403 25.8809 25.1484 25.8778C25.2613 25.9252 25.3769 25.9662 25.4944 26.0005L25.6675 26.0508C26.0102 26.1418 26.3611 26.1987 26.715 26.2207C26.8409 26.2207 26.9698 26.2207 27.102 26.2207H43.9039L40.8997 34.8277C40.6574 35.5293 40.4184 36.2276 40.1761 36.926L39.0877 40.1002C39.0499 40.2197 39.0027 40.3393 38.9618 40.4588H26.2211C25.8688 40.4588 25.5165 40.4273 25.1641 40.3959C24.8118 40.3644 24.4595 40.3267 24.1103 40.2795C23.9373 40.2575 23.7642 40.2291 23.5881 40.2008C23.069 40.1127 22.5499 40.0026 22.034 39.8862L21.6534 39.7887C21.5212 39.7573 21.3985 39.7227 21.2727 39.6849C21.021 39.6063 20.7694 39.5308 20.524 39.449C20.1465 39.3231 19.7753 39.1816 19.4072 39.0369C19.0392 38.8922 18.6805 38.7223 18.3219 38.5587C16.3594 37.6204 14.5636 36.3676 13.0054 34.8497C12.8639 34.7113 12.7223 34.5698 12.587 34.4282C12.307 34.1419 12.0459 33.8557 11.7911 33.5537C11.4765 33.1856 11.162 32.8018 10.882 32.4117C9.8763 31.0655 9.04939 29.5946 8.42192 28.0358C8.30553 27.7496 8.19542 27.4601 8.10734 27.1644C7.97013 26.8163 7.85765 26.4588 7.77073 26.0948C7.77073 26.0634 7.75186 26.0319 7.74557 26.0005C7.73688 25.9792 7.73055 25.9571 7.72669 25.9344C7.70152 25.8463 7.6795 25.7582 7.65748 25.6702C7.61344 25.5003 7.56625 25.3336 7.5285 25.1637V25.1165C7.28938 24.0819 7.13264 23.03 7.05977 21.9706V21.9518C7 21.4704 7 21.03 7 20.577C7 20.3317 7 20.0831 7 19.8378C7 19.5924 7 19.4351 7.03146 19.2306C7.03146 19.0765 7.05348 18.916 7.06606 18.765C7.06297 18.7368 7.06297 18.7083 7.06606 18.6801C7.09438 18.3655 7.13527 18.0509 7.17931 17.7363C7.29597 16.9013 7.4694 16.0752 7.69838 15.2637C7.7613 14.99 7.84938 14.7163 7.93432 14.4521C8.05386 14.0368 8.18284 13.6278 8.32755 13.222C9.14766 10.9194 10.3835 8.78679 11.9736 6.93033C12.1026 6.78877 12.2253 6.65035 12.3479 6.50879C12.4738 6.37352 12.6028 6.2351 12.7349 6.09983C12.8639 5.96456 12.9991 5.83243 13.1344 5.70031L13.6063 5.23157L14.1002 4.79745L14.2543 4.67476L14.5343 4.43882L14.9747 4.08963C15.0817 4.00784 15.1886 3.93549 15.2893 3.85684L15.4466 3.74359C15.6763 3.57686 15.909 3.429 16.1481 3.25913L16.3023 3.15846C16.5445 3.00117 16.793 2.84387 17.0415 2.70546L17.1863 2.62052C17.4442 2.47267 17.7085 2.3311 17.9727 2.19268L18.0954 2.12977C18.3785 1.98506 18.6617 1.85293 18.9511 1.72395L19.0297 1.6862C19.9904 1.25914 20.9834 0.908858 21.9994 0.638634C22.3549 0.547405 22.7104 0.465613 23.069 0.393258C23.6101 0.283154 24.1512 0.191925 24.6985 0.125862C25.2459 0.0597989 25.7964 0.0220489 26.347 0.00317383H53.0772Z" fill="url(#paint2_linear_537_2325)"/>
<g style="mix-blend-mode:color">
<path d="M27.0792 0.00629064H26.3619C24.8914 0.0500998 23.4308 0.261182 22.0081 0.63546C19.0901 1.40442 16.3855 2.82772 14.0994 4.79742C13.7848 5.0774 13.4702 5.36996 13.1556 5.67197C11.0018 7.78439 9.35785 10.36 8.34877 13.2031C8.20406 13.6089 8.07508 14.021 7.95554 14.4363C7.8706 14.7006 7.78567 14.9742 7.7196 15.2448C7.35509 16.5428 7.12839 17.8756 7.04325 19.2211C7.01493 19.671 6.9992 20.1209 7.00235 20.5707C7.0055 21.0206 7.00235 21.4736 7.04325 21.9234C7.13299 23.2736 7.35961 24.6111 7.7196 25.9155C7.7196 25.969 7.75106 26.0256 7.76365 26.0791C7.85102 26.443 7.96349 26.8003 8.10025 27.1487C8.20092 27.4444 8.31102 27.7338 8.41484 28.0201C9.04312 29.5779 9.86884 31.0485 10.8717 32.396C11.1643 32.786 11.4632 33.1667 11.784 33.5348C12.042 33.8493 12.3 34.1262 12.5799 34.4124C13.6793 35.5501 14.9108 36.5524 16.248 37.3979C16.9142 37.8201 17.6054 38.2015 18.318 38.5398C19.0322 38.8843 19.7677 39.1827 20.5201 39.4332C21.014 39.5999 21.5173 39.7478 22.0332 39.8736C22.7179 40.0428 23.4109 40.1761 24.1095 40.2732C24.4587 40.3204 24.8079 40.3612 25.1602 40.3896C25.5125 40.4179 25.8617 40.443 26.2172 40.4525H38.9579C38.9988 40.3298 39.0428 40.2102 39.0837 40.0876L40.8957 34.8183L43.9032 26.2081H27.1012C26.6168 26.2083 26.1345 26.1448 25.6667 26.0193C25.4318 25.9568 25.2016 25.8779 24.9777 25.7834C24.6229 25.6316 24.2846 25.444 23.9679 25.2234C23.6856 25.0375 23.4203 24.8269 23.1752 24.5942C22.946 24.3662 22.7356 24.12 22.546 23.8581C22.3623 23.5953 22.1993 23.3187 22.0584 23.0308C21.5461 21.9389 21.4005 20.7108 21.6431 19.5294C21.7309 19.0941 21.8725 18.6714 22.0647 18.2711C22.5129 17.3144 23.2243 16.5051 24.1157 15.9379C25.007 15.3708 26.0415 15.0692 27.098 15.0686H47.8072L49.6475 9.80247L53.0733 0L27.0792 0.00629064Z" fill="#C1A875"/>
</g>
<g style="mix-blend-mode:overlay" opacity="0.22">
<path d="M7.71338 25.922L7.75743 26.0856C7.84478 26.4505 7.95725 26.809 8.09403 27.1583C8.1947 27.4509 8.3048 27.7403 8.40862 28.0266C9.0369 29.5844 9.86262 31.055 10.8655 32.4025C11.1581 32.7926 11.4569 33.1764 11.7778 33.5444C12.0358 33.859 12.2937 34.1327 12.5737 34.419C13.6731 35.5567 14.9045 36.5589 16.2418 37.4044C16.9079 37.8277 17.5992 38.2101 18.3118 38.5495C19.0274 38.8908 19.7627 39.1892 20.5138 39.4429C21.0109 39.6065 21.5142 39.7575 22.0301 39.8802C22.7148 40.0493 23.4079 40.1827 24.1064 40.2797C24.4556 40.33 24.8048 40.3678 25.1571 40.3992C25.5095 40.4307 25.8586 40.4496 26.2141 40.4621H38.8479V40.4401H38.9013L38.9517 40.4213C39.5955 38.5547 40.2394 36.6903 40.8832 34.8279L43.8906 26.2177H27.1012C26.6171 26.2174 26.135 26.1551 25.6667 26.0321C25.4328 25.9667 25.2027 25.888 24.9778 25.7962C24.6235 25.6422 24.2852 25.4536 23.968 25.2331C23.685 25.0482 23.4196 24.8375 23.1752 24.6039C22.9461 24.3758 22.7357 24.1297 22.5461 23.8678C22.3624 23.605 22.1994 23.3284 22.0585 23.0404C21.546 21.9487 21.4003 20.7204 21.6432 19.5391C21.7309 19.1038 21.8725 18.6811 22.0647 18.2808C22.5125 17.3239 23.2238 16.5146 24.1154 15.9479C25.007 15.3812 26.0417 15.0806 27.0981 15.0814H47.8072L49.6476 9.81214L53.0734 0.0128174H26.362C24.8913 0.0535211 23.4302 0.264655 22.0081 0.641987C19.09 1.40723 16.385 2.82856 14.0995 4.79765C13.7849 5.07763 13.4703 5.3702 13.1557 5.6722C11.0019 7.78463 9.35792 10.3603 8.34884 13.2034C8.20414 13.6092 8.07516 14.0213 7.95561 14.4365C7.87068 14.7008 7.78574 14.9745 7.71968 15.2482C7.35489 16.5461 7.12818 17.879 7.04332 19.2245C7.01186 19.6712 6.99928 20.1211 7.00242 20.5709C7.00557 21.0208 7.00242 21.4738 7.04332 21.9237C7.04689 21.9476 7.04689 21.972 7.04332 21.996C6.99928 23.0247 7.31386 24.3869 7.71338 25.922Z" fill="white"/>
<g style="mix-blend-mode:color">
<path d="M7.71338 25.9218C7.71338 25.9784 7.74484 26.0319 7.75743 26.0853C7.84478 26.4502 7.95725 26.8087 8.09403 27.1581C8.1947 27.4506 8.3048 27.7401 8.40862 28.0263C9.0369 29.5841 9.86262 31.0548 10.8655 32.4022C11.1581 32.7923 11.4569 33.1761 11.7778 33.5442C12.0358 33.8587 12.2937 34.1324 12.5737 34.4187C13.6731 35.5564 14.9045 36.5586 16.2418 37.4041C16.9079 37.8274 17.5992 38.2098 18.3118 38.5492C19.0274 38.8905 19.7627 39.1889 20.5138 39.4426C21.0109 39.6062 21.5142 39.7572 22.0301 39.8799C22.7148 40.049 23.4079 40.1824 24.1064 40.2794C24.4556 40.3297 24.8048 40.3675 25.1571 40.399C25.5095 40.4304 25.8586 40.4493 26.2141 40.4619H38.958L40.8927 34.8245L43.9001 26.2143H27.1012C26.6171 26.214 26.135 26.1517 25.6667 26.0287C25.4328 25.9633 25.2027 25.8846 24.9778 25.7928C24.6235 25.6388 24.2852 25.4501 23.968 25.2297C23.685 25.0447 23.4196 24.8341 23.1752 24.6005C22.9461 24.3724 22.7357 24.1263 22.5461 23.8644C22.3624 23.6016 22.1994 23.325 22.0585 23.037C21.546 21.9453 21.4003 20.717 21.6432 19.5357C21.7309 19.1004 21.8725 18.6777 22.0647 18.2773C22.5125 17.3205 23.2238 16.5112 24.1154 15.9445C25.007 15.3778 26.0417 15.0772 27.0981 15.078H47.8072L49.6476 9.80872L53.0734 0.00939941H26.362C24.8914 0.0515316 23.4305 0.262642 22.0081 0.638569C19.0897 1.40474 16.3847 2.82716 14.0995 4.79738C13.7849 5.07736 13.4703 5.36993 13.1557 5.67193C11.0019 7.78436 9.35792 10.36 8.34885 13.2031C8.20414 13.6089 8.07516 14.021 7.95561 14.4363C7.87068 14.7005 7.78574 14.9742 7.71968 15.2479C7.35489 16.5458 7.12818 17.8787 7.04332 19.2242C7.01186 19.671 6.99928 20.1208 7.00242 20.5707C7.00557 21.0205 7.00242 21.4735 7.04332 21.9234C7.13059 23.2754 7.3551 24.6151 7.71338 25.9218Z" fill="white"/>
</g>
</g>
<path d="M34.9976 51.8625L30.3512 65.1789L30.326 65.2481L30.0523 66H6.09036C6.09036 65.9843 6.09036 65.9654 6.06834 65.9465C4.27206 61.8317 2.20209 56.9683 0 51.8625H34.9976Z" fill="url(#paint3_linear_537_2325)"/>
<g style="mix-blend-mode:color">
<path d="M34.9976 51.8625L30.3512 65.1789L30.326 65.2481L30.0523 66H6.09036C6.09036 65.9843 6.09036 65.9654 6.06834 65.9465C4.27206 61.8317 2.20209 56.9683 0 51.8625H34.9976Z" fill="#C1A875"/>
</g>
<g style="mix-blend-mode:overlay" opacity="0.22">
<path d="M34.9976 51.8625L30.3512 65.1789L30.326 65.2481L30.0523 66H6.09036C6.09036 65.9843 6.09036 65.9654 6.06834 65.9465C4.27206 61.8317 2.20209 56.9683 0 51.8625H34.9976Z" fill="white"/>
<g style="mix-blend-mode:color">
<path d="M34.9976 51.8625L30.3512 65.1789L30.326 65.2481L30.0523 66H6.09036C6.09036 65.9843 6.09036 65.9654 6.06834 65.9465C4.27206 61.8317 2.20209 56.9683 0 51.8625H34.9976Z" fill="white"/>
</g>
</g>
<path d="M77.4661 26.1608V53.4321C77.4818 54.6603 77.3089 55.8836 76.9533 57.0593C76.8841 57.3173 76.8055 57.5438 76.7205 57.7703L76.6922 57.8395L76.6639 57.915L76.5538 58.1855C76.5035 58.3082 76.4531 58.4277 76.3996 58.5473V58.5819C76.3713 58.6417 76.3462 58.7014 76.3179 58.7581C76.2298 58.95 76.1385 59.1356 76.041 59.3212C75.4552 60.4231 74.7041 61.4288 73.8138 62.3034L73.6659 62.4418C73.5464 62.5614 73.4237 62.6809 73.2978 62.7942L73.0839 62.9829L72.741 63.2692L72.5145 63.4454C72.395 63.5366 72.2723 63.6247 72.1496 63.7128L71.9325 63.8669L71.4921 64.1469L71.36 64.2318L71.3285 64.2476C71.2027 64.3231 71.0769 64.3891 70.9479 64.4583L70.8189 64.5307C69.0669 65.4249 67.1409 65.9262 65.1753 65.9998H32.0243V65.9746H31.9834L39.1276 46.1558L39.2472 45.8003V51.8309H62.9952V40.4744H47.8353V26.2048H72.9644H74.3485H74.6946L77.4126 26.1796L77.4661 26.1608Z" fill="url(#paint4_linear_537_2325)"/>
<path d="M204.286 15.1136L192.592 45.3109L190.735 49.9939H198.298L202.133 39.7666H213.599L217.541 49.9939H225.225L211.688 15.1136H204.286ZM204.071 34.0878L207.059 26.3098C207.328 25.5696 207.61 24.8026 207.852 23.9683C208.377 25.6235 211.028 32.3654 211.688 34.0878H204.071Z" fill="url(#paint5_linear_537_2325)"/>
<path d="M116.911 28.7053C111.38 26.8213 110.37 25.5025 110.37 23.5782C110.519 18.653 119.696 19.6085 122.643 21.3309L123.814 21.8826L125.98 16.2308C118.808 12.0188 103.104 13.4587 103.104 24.0492C103.104 28.7995 106.562 32.1906 113.667 34.3975C118.808 36.1335 119.817 37.6676 119.817 39.7803C119.723 45.6475 109.173 44.571 105.311 42.1487L104.059 41.4759L102.081 47.2623C111.609 52.7796 127.165 50.0748 127.097 39.4439C127.151 33.0384 121.97 30.4278 116.911 28.7053Z" fill="url(#paint6_linear_537_2325)"/>
<path d="M128.04 20.5235H139.29V49.4558H146.503V20.5235H157.807V14.5621H128.04V20.5235Z" fill="url(#paint7_linear_537_2325)"/>
<path d="M186.468 46.6565L186.051 45.5531C185.486 43.9383 184.988 41.8794 184.194 39.0265C183.697 36.5701 182.348 34.3681 180.386 32.8095C186.549 29.9835 187.679 21.2635 182.404 17.2399C178.219 13.3643 166.404 14.0775 160.645 15.2079V49.4556H167.804V35.3797H171.06C174.842 35.5008 176.349 36.8061 177.344 40.7624C178.825 46.2932 179.148 47.6927 180.332 49.4287H187.706C187.296 48.6228 186.928 47.7963 186.603 46.9526C186.549 46.8719 186.522 46.7642 186.468 46.6565ZM171.477 29.7951H167.804V20.0927C172.271 19.4871 178.825 19.9178 178.569 24.7757C178.596 27.8977 175.891 29.7951 171.477 29.7951Z" fill="url(#paint8_linear_537_2325)"/>
<path d="M219.263 21.0618H230.513V49.9941H237.726V21.0618H249.029V15.1005H219.263V21.0618Z" fill="url(#paint9_linear_537_2325)"/>
<path d="M258.532 34.7609H272.89V28.8938H258.532V21.0215H273.711V15.1005H251.359V49.9941H274.532V44.0731H258.532V34.7609Z" fill="url(#paint10_linear_537_2325)"/>
<path d="M294.287 35.9987H301.809V43.6288C293.022 45.6473 283.387 42.4311 283.589 32.2443C283.373 20.4426 297.342 18.1684 306.142 22.1516L308.053 16.4728C304.66 15.0065 300.982 14.3169 297.288 14.4543C284.665 14.4543 276.133 21.6806 276.066 32.4327C275.998 34.8789 276.462 37.3108 277.426 39.56C278.39 41.8092 279.832 43.8219 281.651 45.4589C288.164 51.4338 301.257 50.6802 308.793 47.9215V30.2257H294.287V35.9987Z" fill="url(#paint11_linear_537_2325)"/>
<path d="M320.93 15.1005H313.758V49.9941H320.93V15.1005Z" fill="url(#paint12_linear_537_2325)"/>
<path d="M345.327 19.9987C348.157 19.9204 350.963 20.5251 353.509 21.7615L355.42 16.0558C353.186 15.06 351.76 14.2392 345.166 14.0508C318.75 13.5798 317.216 50.2094 344.116 49.9672C349.728 49.873 352.581 49.1597 355.339 47.8948L353.657 42.2698C344.668 46.3876 331.803 43.7366 332.126 32.1772C332.113 24.5606 337.051 19.9987 345.327 19.9987Z" fill="url(#paint13_linear_537_2325)"/>
<path d="M380.989 35.0032C380.989 41.0857 378.365 44.1674 373.198 44.1674C368.353 44.1674 365.783 41.005 365.783 35.0032V14.5623H358.57V34.8956C358.57 44.6249 363.711 49.9807 373.036 49.9807C382.685 49.9807 388.216 44.4096 388.216 34.7072V14.5219H380.989V35.0032Z" fill="url(#paint14_linear_537_2325)"/>
<path d="M430.885 15.1005H422.892C420.806 20.1602 414.643 34.3707 413.149 39.1479C411.804 34.4245 405.788 20.093 403.824 15.1005H395.75L393.099 49.9941H400.069C400.446 44.6114 401.415 32.406 401.59 27.1174C402.936 31.2487 408.52 45.3246 410.189 49.7384H415.437C417.375 44.9747 423.229 31.1141 424.857 26.5792C425.072 32.0561 425.933 44.3557 426.283 49.9268H433.362L430.885 15.1005Z" fill="url(#paint15_linear_537_2325)"/>
<g opacity="0.64">
<path d="M204.287 15.1139L192.593 45.3111L190.736 49.9941H198.299L202.134 39.7669H213.6L217.542 49.9941H225.226L211.689 15.1139H204.287ZM204.072 34.0881L207.06 26.31C207.329 25.5699 207.611 24.8029 207.853 23.9685C208.378 25.6237 211.029 32.3656 211.689 34.0881H204.072Z" fill="url(#paint16_linear_537_2325)"/>
<path d="M116.912 28.7054C111.381 26.8214 110.371 25.5027 110.371 23.5783C110.519 18.6531 119.697 19.6086 122.644 21.3311L123.815 21.8828L125.981 16.2309C118.809 12.0189 103.105 13.4588 103.105 24.0493C103.105 28.7996 106.563 32.1907 113.668 34.3977C118.809 36.1336 119.818 37.6677 119.818 39.7804C119.724 45.6476 109.174 44.5711 105.312 42.1488L104.06 41.476L102.082 47.2624C111.609 52.7798 127.166 50.0749 127.098 39.444C127.152 33.0385 121.971 30.4279 116.912 28.7054Z" fill="url(#paint17_linear_537_2325)"/>
<path d="M128.04 20.5238H139.29V49.456H146.503V20.5238H157.807V14.5624H128.04V20.5238Z" fill="url(#paint18_linear_537_2325)"/>
<path d="M186.47 46.6569L186.053 45.5535C185.488 43.9387 184.99 41.8797 184.196 39.0269C183.699 36.5704 182.35 34.3685 180.388 32.8098C186.551 29.9839 187.681 21.2638 182.406 17.2402C178.221 13.3646 166.406 14.0778 160.646 15.2082V49.456H167.806V35.3801H171.062C174.843 35.5012 176.351 36.8065 177.346 40.7628C178.827 46.2936 179.15 47.6931 180.334 49.429H187.708C187.298 48.6231 186.93 47.7967 186.605 46.953C186.551 46.8722 186.524 46.7646 186.47 46.6569ZM171.479 29.7955H167.806V20.0931C172.273 19.4875 178.827 19.9181 178.571 24.7761C178.598 27.8981 175.893 29.7955 171.479 29.7955Z" fill="url(#paint19_linear_537_2325)"/>
<path d="M219.264 21.0618H230.514V49.9941H237.726V21.0618H249.03V15.1005H219.264V21.0618Z" fill="url(#paint20_linear_537_2325)"/>
<path d="M258.531 34.7609H272.889V28.8938H258.531V21.0215H273.71V15.1005H251.358V49.9941H274.531V44.0731H258.531V34.7609Z" fill="url(#paint21_linear_537_2325)"/>
<path d="M294.288 35.999H301.81V43.629C293.023 45.6475 283.388 42.4314 283.59 32.2445C283.374 20.4428 297.342 18.1686 306.143 22.1519L308.054 16.4731C304.661 15.0068 300.983 14.3171 297.289 14.4545C284.666 14.4545 276.134 21.6809 276.067 32.4329C275.999 34.8792 276.463 37.311 277.427 39.5602C278.391 41.8094 279.833 43.8222 281.652 45.4592C288.165 51.434 301.258 50.6804 308.794 47.9218V30.226H294.288V35.999Z" fill="url(#paint22_linear_537_2325)"/>
<path d="M320.93 15.1005H313.758V49.9941H320.93V15.1005Z" fill="url(#paint23_linear_537_2325)"/>
<path d="M345.328 19.9988C348.158 19.9206 350.964 20.5252 353.51 21.7616L355.421 16.056C353.187 15.0601 351.761 14.2393 345.167 14.0509C318.751 13.5799 317.217 50.2095 344.117 49.9673C349.729 49.8731 352.582 49.1599 355.34 47.8949L353.658 42.2699C344.669 46.3877 331.804 43.7367 332.127 32.1773C332.114 24.5607 337.052 19.9988 345.328 19.9988Z" fill="url(#paint24_linear_537_2325)"/>
<path d="M380.99 35.0033C380.99 41.0858 378.366 44.1675 373.199 44.1675C368.354 44.1675 365.784 41.0051 365.784 35.0033V14.5624H358.571V34.8957C358.571 44.625 363.712 49.9808 373.037 49.9808C382.686 49.9808 388.217 44.4097 388.217 34.7073V14.522H380.99V35.0033Z" fill="url(#paint25_linear_537_2325)"/>
<path d="M430.886 15.1005H422.893C420.807 20.1602 414.644 34.3707 413.15 39.1479C411.805 34.4245 405.789 20.093 403.825 15.1005H395.751L393.1 49.9941H400.07C400.447 44.6114 401.416 32.406 401.591 27.1174C402.937 31.2487 408.521 45.3246 410.19 49.7384H415.438C417.376 44.9747 423.23 31.1141 424.858 26.5792C425.073 32.0561 425.934 44.3557 426.284 49.9268H433.363L430.886 15.1005Z" fill="url(#paint26_linear_537_2325)"/>
</g>
<g style="mix-blend-mode:color">
<path d="M204.219 15.0872L192.592 45.2709L190.708 49.9674H198.284L202.119 39.7402H213.585L217.433 49.9674H225.211L211.66 15.0603L204.219 15.0872ZM203.95 34.0749L206.924 26.2833C207.193 25.5297 207.462 24.7492 207.731 23.9418C208.242 25.5835 210.907 32.3255 211.553 34.0749H203.95Z" fill="#C1A875"/>
<path d="M116.843 28.6786C111.312 26.7946 110.289 25.4758 110.289 23.5515C110.451 18.6263 119.709 19.5144 122.562 21.2907L123.746 21.8559L125.886 16.2175C118.727 11.9786 103.09 13.5261 103.009 24.0225C103.009 28.7593 106.481 32.0966 113.6 34.3708C118.727 36.1067 119.75 37.6408 119.75 39.7535C119.75 45.6342 108.984 44.5577 105.216 42.1354L103.978 41.4626L102 47.2356C111.527 52.7664 127.097 50.0615 127.016 39.4306C127.07 32.9982 121.889 30.3876 116.843 28.6786Z" fill="#C1A875"/>
<path d="M127.999 20.5102H139.249V49.429H146.475V20.5102H157.752V14.5488H127.999V20.5102Z" fill="#C1A875"/>
<path d="M186.387 46.6165L185.983 45.5399C185.391 43.8982 184.907 41.8527 184.099 39.0133C183.633 36.5414 182.278 34.3254 180.291 32.7828C181.708 32.1188 182.935 31.1088 183.859 29.846C184.784 28.5831 185.375 27.108 185.58 25.5565C185.78 24.0048 185.59 22.4277 185.028 20.9677C184.466 19.5069 183.539 18.2143 182.336 17.2132C178.138 13.3376 166.188 14.0374 160.55 15.1678V49.4289H167.722V35.3665H170.979C174.76 35.3665 176.362 36.7122 177.263 40.7493C177.765 43.7836 178.77 46.7127 180.237 49.4155H187.625C187.248 48.635 186.871 47.8007 186.522 46.9394C186.463 46.8381 186.418 46.7295 186.387 46.6165ZM171.409 29.7416H167.722V20.093C172.177 19.5009 178.73 19.9315 178.488 24.7894C178.515 27.871 175.81 29.7416 171.409 29.7416Z" fill="#C1A875"/>
<path d="M219.194 21.0483H230.417V49.9671H237.644V21.0483H248.947V15.0869H219.194V21.0483Z" fill="#C1A875"/>
<path d="M258.45 34.7474H272.822V28.8667H258.45V20.9945H273.629V15.0869H251.291V49.9671H274.464V44.0595H258.45V34.7474Z" fill="#C1A875"/>
<path d="M294.217 35.9451H301.712V43.602C292.952 45.6206 283.317 42.3909 283.505 32.2175C283.29 20.4024 297.258 18.1282 306.059 22.1249L307.97 16.4595C304.581 14.9747 300.901 14.2755 297.204 14.4141C284.555 14.4141 276.036 21.6404 275.983 32.4059C275.912 34.8524 276.375 37.2848 277.34 39.5343C278.304 41.7838 279.747 43.7963 281.567 45.4321C288.067 51.3935 301.174 50.64 308.696 47.8948V30.1721H294.163L294.217 35.9451Z" fill="#C1A875"/>
<path d="M320.835 15.0869H313.703V49.994H320.876L320.835 15.0869Z" fill="#C1A875"/>
<path d="M345.258 19.9719C348.049 19.9128 350.815 20.5121 353.332 21.7212L355.243 16.0559C352.048 14.5198 348.514 13.825 344.975 14.0374C318.586 13.5798 317.052 50.2095 343.966 49.9672C347.806 50.1268 351.633 49.4184 355.162 47.8949L353.493 42.2564C344.491 46.4011 331.639 43.7367 331.962 32.1638C332.03 24.5337 336.968 19.9719 345.258 19.9719Z" fill="#C1A875"/>
<path d="M380.988 34.9898C380.988 41.0588 378.297 44.1404 373.197 44.1404C368.097 44.1404 365.796 40.9781 365.796 34.9898V14.5219H358.569V34.8956C358.569 44.6114 363.696 49.9807 373.035 49.9807C382.375 49.9807 388.215 44.3961 388.215 34.7072V14.5219H380.988V34.9898Z" fill="#C1A875"/>
<path d="M430.778 15.0603H422.704C420.632 20.1335 414.455 34.344 412.948 39.2827C411.602 34.5593 405.6 20.2143 403.636 15.0603H395.561L392.87 49.9674H399.881C400.258 44.5847 401.227 32.3793 401.402 27.0907C402.747 31.222 408.332 45.3248 410.001 49.7252H415.383C417.348 44.9749 423.202 31.0874 424.803 26.5524C425.019 32.0563 425.907 44.3559 426.257 49.9136H433.47L430.778 15.0603Z" fill="#C1A875"/>
</g>
<defs>
<linearGradient id="paint0_linear_537_2325" x1="50.2944" y1="7.6852" x2="79.7364" y2="7.6852" gradientUnits="userSpaceOnUse">
<stop offset="0.01" stop-color="#2E0E0D"/>
<stop offset="0.08" stop-color="#3F1010"/>
<stop offset="0.19" stop-color="#5F1316"/>
<stop offset="0.6" stop-color="#A3151C"/>
<stop offset="0.87" stop-color="#C31920"/>
<stop offset="1" stop-color="#EA1C24"/>
</linearGradient>
<linearGradient id="paint1_linear_537_2325" x1="50.2924" y1="7.58146" x2="80.071" y2="7.58146" gradientUnits="userSpaceOnUse">
<stop offset="0.01" stop-color="#2E0E0D"/>
<stop offset="0.08" stop-color="#3F1010"/>
<stop offset="0.19" stop-color="#5F1316"/>
<stop offset="0.6" stop-color="#A3151C"/>
<stop offset="0.87" stop-color="#C31920"/>
<stop offset="1" stop-color="#EA1C24"/>
</linearGradient>
<linearGradient id="paint2_linear_537_2325" x1="6.99685" y1="20.231" x2="53.0772" y2="20.231" gradientUnits="userSpaceOnUse">
<stop offset="0.08" stop-color="#394345"/>
<stop offset="0.31" stop-color="#576265"/>
<stop offset="0.41" stop-color="#576265"/>
<stop offset="0.48" stop-color="#5C6669"/>
<stop offset="0.6" stop-color="#757A7B"/>
<stop offset="1" stop-color="#9EA1A1"/>
</linearGradient>
<linearGradient id="paint3_linear_537_2325" x1="-0.00943755" y1="58.9313" x2="34.9818" y2="58.9313" gradientUnits="userSpaceOnUse">
<stop offset="0.08" stop-color="#394345"/>
<stop offset="0.31" stop-color="#576265"/>
<stop offset="0.41" stop-color="#576265"/>
<stop offset="0.48" stop-color="#5C6669"/>
<stop offset="0.6" stop-color="#757A7B"/>
<stop offset="1" stop-color="#9EA1A1"/>
</linearGradient>
<linearGradient id="paint4_linear_537_2325" x1="31.9928" y1="46.0803" x2="77.4598" y2="46.0803" gradientUnits="userSpaceOnUse">
<stop offset="0.01" stop-color="#2E0E0D"/>
<stop offset="0.08" stop-color="#3F1010"/>
<stop offset="0.19" stop-color="#5F1316"/>
<stop offset="0.6" stop-color="#A3151C"/>
<stop offset="0.87" stop-color="#C31920"/>
<stop offset="1" stop-color="#EA1C24"/>
</linearGradient>
<linearGradient id="paint5_linear_537_2325" x1="190.749" y1="32.5538" x2="225.239" y2="32.5538" gradientUnits="userSpaceOnUse">
<stop stop-color="#666666"/>
<stop offset="1" stop-color="#494949"/>
</linearGradient>
<linearGradient id="paint6_linear_537_2325" x1="102.135" y1="32.0157" x2="127.151" y2="32.0157" gradientUnits="userSpaceOnUse">
<stop stop-color="#666666"/>
<stop offset="1" stop-color="#494949"/>
</linearGradient>
<linearGradient id="paint7_linear_537_2325" x1="128.04" y1="32.0157" x2="157.807" y2="32.0157" gradientUnits="userSpaceOnUse">
<stop stop-color="#666666"/>
<stop offset="1" stop-color="#494949"/>
</linearGradient>
<linearGradient id="paint8_linear_537_2325" x1="160.645" y1="31.8809" x2="187.706" y2="31.8809" gradientUnits="userSpaceOnUse">
<stop stop-color="#666666"/>
<stop offset="1" stop-color="#494949"/>
</linearGradient>
<linearGradient id="paint9_linear_537_2325" x1="219.263" y1="32.5406" x2="249.029" y2="32.5406" gradientUnits="userSpaceOnUse">
<stop stop-color="#666666"/>
<stop offset="1" stop-color="#494949"/>
</linearGradient>
<linearGradient id="paint10_linear_537_2325" x1="251.359" y1="32.5406" x2="274.532" y2="32.5406" gradientUnits="userSpaceOnUse">
<stop stop-color="#666666"/>
<stop offset="1" stop-color="#494949"/>
</linearGradient>
<linearGradient id="paint11_linear_537_2325" x1="276.133" y1="32.2174" x2="308.861" y2="32.2174" gradientUnits="userSpaceOnUse">
<stop stop-color="#666666"/>
<stop offset="1" stop-color="#494949"/>
</linearGradient>
<linearGradient id="paint12_linear_537_2325" x1="313.758" y1="32.5406" x2="320.917" y2="32.5406" gradientUnits="userSpaceOnUse">
<stop stop-color="#666666"/>
<stop offset="1" stop-color="#494949"/>
</linearGradient>
<linearGradient id="paint13_linear_537_2325" x1="324.644" y1="32.0426" x2="355.42" y2="32.0426" gradientUnits="userSpaceOnUse">
<stop stop-color="#666666"/>
<stop offset="1" stop-color="#494949"/>
</linearGradient>
<linearGradient id="paint14_linear_537_2325" x1="358.611" y1="32.2849" x2="388.256" y2="32.2849" gradientUnits="userSpaceOnUse">
<stop stop-color="#666666"/>
<stop offset="1" stop-color="#494949"/>
</linearGradient>
<linearGradient id="paint15_linear_537_2325" x1="393.045" y1="32.5406" x2="433.362" y2="32.5406" gradientUnits="userSpaceOnUse">
<stop stop-color="#666666"/>
<stop offset="1" stop-color="#494949"/>
</linearGradient>
<linearGradient id="paint16_linear_537_2325" x1="190.75" y1="32.554" x2="225.24" y2="32.554" gradientUnits="userSpaceOnUse">
<stop stop-color="#B3B3B3"/>
<stop offset="1" stop-color="#4D4D4D"/>
</linearGradient>
<linearGradient id="paint17_linear_537_2325" x1="102.136" y1="32.0158" x2="127.152" y2="32.0158" gradientUnits="userSpaceOnUse">
<stop stop-color="#B3B3B3"/>
<stop offset="1" stop-color="#4D4D4D"/>
</linearGradient>
<linearGradient id="paint18_linear_537_2325" x1="128.04" y1="32.0159" x2="157.807" y2="32.0159" gradientUnits="userSpaceOnUse">
<stop stop-color="#B3B3B3"/>
<stop offset="1" stop-color="#4D4D4D"/>
</linearGradient>
<linearGradient id="paint19_linear_537_2325" x1="160.646" y1="31.8813" x2="187.708" y2="31.8813" gradientUnits="userSpaceOnUse">
<stop stop-color="#B3B3B3"/>
<stop offset="1" stop-color="#4D4D4D"/>
</linearGradient>
<linearGradient id="paint20_linear_537_2325" x1="219.264" y1="32.5406" x2="249.03" y2="32.5406" gradientUnits="userSpaceOnUse">
<stop stop-color="#B3B3B3"/>
<stop offset="1" stop-color="#4D4D4D"/>
</linearGradient>
<linearGradient id="paint21_linear_537_2325" x1="251.358" y1="32.5406" x2="274.531" y2="32.5406" gradientUnits="userSpaceOnUse">
<stop stop-color="#B3B3B3"/>
<stop offset="1" stop-color="#4D4D4D"/>
</linearGradient>
<linearGradient id="paint22_linear_537_2325" x1="276.134" y1="32.2176" x2="308.862" y2="32.2176" gradientUnits="userSpaceOnUse">
<stop stop-color="#B3B3B3"/>
<stop offset="1" stop-color="#4D4D4D"/>
</linearGradient>
<linearGradient id="paint23_linear_537_2325" x1="313.758" y1="32.5406" x2="320.917" y2="32.5406" gradientUnits="userSpaceOnUse">
<stop stop-color="#B3B3B3"/>
<stop offset="1" stop-color="#4D4D4D"/>
</linearGradient>
<linearGradient id="paint24_linear_537_2325" x1="324.645" y1="32.0427" x2="355.421" y2="32.0427" gradientUnits="userSpaceOnUse">
<stop stop-color="#B3B3B3"/>
<stop offset="1" stop-color="#4D4D4D"/>
</linearGradient>
<linearGradient id="paint25_linear_537_2325" x1="358.612" y1="32.285" x2="388.257" y2="32.285" gradientUnits="userSpaceOnUse">
<stop stop-color="#B3B3B3"/>
<stop offset="1" stop-color="#4D4D4D"/>
</linearGradient>
<linearGradient id="paint26_linear_537_2325" x1="393.046" y1="32.5406" x2="433.363" y2="32.5406" gradientUnits="userSpaceOnUse">
<stop stop-color="#B3B3B3"/>
<stop offset="1" stop-color="#4D4D4D"/>
</linearGradient>
</defs>
</svg>
