<svg width="77" height="73" viewBox="0 0 77 73" fill="none" xmlns="http://www.w3.org/2000/svg">
<g clip-path="url(#clip0_536_986)">
<path d="M38.5 73C28.3498 73 18.8069 69.2033 11.6298 62.3096C4.4527 55.4158 0.5 46.2496 0.5 36.5C0.5 26.7504 4.4527 17.5849 11.6298 10.6904C18.8069 3.79668 28.3498 0 38.5 0C48.6502 0 58.1931 3.79668 65.3702 10.6904C72.5473 17.5849 76.5 26.7504 76.5 36.5C76.5 46.2496 72.5473 55.4158 65.3702 62.3096C58.1931 69.2033 48.6502 73 38.5 73ZM38.5 0.92737C28.608 0.92737 19.3072 4.62739 12.3124 11.3468C5.31756 18.0648 1.46548 26.9985 1.46548 36.5C1.46548 46.0015 5.31756 54.9352 12.3124 61.6539C19.3072 68.3726 28.6073 72.0726 38.5 72.0726C48.3927 72.0726 57.6928 68.3726 64.6876 61.6539C71.6824 54.9352 75.5345 46.0022 75.5345 36.5C75.5345 26.9978 71.6824 18.0648 64.6876 11.3461C57.6928 4.62739 48.3927 0.92737 38.5 0.92737Z" fill="url(#paint0_linear_536_986)"/>
<path d="M38.5002 70.7426C28.9777 70.7426 20.0252 67.1805 13.2921 60.7132C6.5591 54.246 2.85059 45.6469 2.85059 36.5002C2.85059 27.3536 6.5591 18.7545 13.2921 12.2872C20.0252 5.81994 28.9777 2.25781 38.5002 2.25781C48.0227 2.25781 56.9752 5.81927 63.7083 12.2872C70.4413 18.7545 74.1498 27.3536 74.1498 36.5002C74.1498 45.6469 70.4413 54.246 63.7083 60.7132C56.9752 67.1805 48.0227 70.7426 38.5002 70.7426ZM38.5002 2.60524C29.0748 2.60524 20.2131 6.13087 13.5483 12.5326C6.88351 18.9343 3.21229 27.4469 3.21229 36.5002C3.21229 45.5536 6.88281 54.0655 13.5476 60.4672C20.2124 66.8689 29.0741 70.3945 38.4995 70.3945C47.9249 70.3945 56.7867 66.8689 63.4514 60.4672C70.1162 54.0655 73.7867 45.5536 73.7867 36.5002C73.7867 27.4469 70.1176 18.9349 63.4521 12.5332C56.7874 6.13154 47.9256 2.60524 38.5002 2.60524Z" fill="url(#paint1_linear_536_986)"/>
<path d="M61.3283 48.2982C60.474 47.4398 59.2939 46.8267 57.7873 46.4597C59.1532 46.0163 60.1475 45.3938 60.771 44.5928C61.3937 43.7925 61.7055 42.7739 61.7055 41.539C61.7055 40.786 61.5099 40.0823 61.1179 39.426C60.7259 38.7704 60.1383 38.2006 59.3551 37.7179C58.5712 37.236 57.5966 36.8595 56.4319 36.5891C55.2666 36.3188 53.9106 36.1836 52.3638 36.1836C51.4075 36.1836 50.4906 36.2532 49.6116 36.3918C49.9297 37.0319 50.1211 37.7301 50.1837 38.475C50.7917 38.3959 51.4173 38.3547 52.0626 38.3547C53.6495 38.3547 54.8753 38.6778 55.7395 39.3246C56.6029 39.9715 57.0357 40.8056 57.0357 41.8283C57.0357 44.3373 55.579 45.5911 52.6657 45.5911H46.9397V47.7622H53.2681C54.8549 47.7622 56.0301 48.0758 56.7943 48.7031C57.5571 49.3304 57.9393 50.2226 57.9393 51.3804C57.9393 51.959 57.8189 52.495 57.5776 52.9871C57.3362 53.4792 56.9597 53.9091 56.4474 54.2754C55.9351 54.6425 55.2666 54.927 54.4433 55.1291C53.6192 55.3319 52.6249 55.4333 51.4596 55.4333C49.9529 55.4333 48.5561 55.2069 47.2704 54.7533C45.9847 54.3004 44.7694 53.5623 43.6238 52.539L42.1172 54.2761C43.2621 55.2988 44.6639 56.1099 46.3211 56.7074C47.9783 57.3056 49.7918 57.6044 51.7607 57.6044C53.6896 57.6044 55.3363 57.4496 56.7029 57.1414C58.0687 56.8331 59.189 56.4134 60.063 55.8821C60.937 55.3515 61.5795 54.7242 61.9919 54.0003C62.4036 53.2764 62.6097 52.4998 62.6097 51.6697C62.609 50.2807 62.1819 49.1573 61.3283 48.2982Z" fill="url(#paint2_linear_536_986)"/>
<path d="M52.0609 38.3547C52.9525 38.3547 53.73 38.4567 54.3936 38.6609L53.6329 36.2174C53.2241 36.1958 52.8019 36.1836 52.362 36.1836C51.4057 36.1836 50.4888 36.2532 49.6099 36.3918C49.9279 37.0319 50.1193 37.7301 50.182 38.475C50.79 38.3966 51.4156 38.3547 52.0609 38.3547Z" fill="url(#paint3_linear_536_986)"/>
<path fill-rule="evenodd" clip-rule="evenodd" d="M25.0766 16.7993H18.1451L9.55713 37.0622H13.8969L15.8855 32.1415H27.3376L29.327 37.0622H33.6667L25.0766 16.7993ZM19.4252 29.9704H16.9404H16.9144L17.5076 28.5827L17.5301 28.5719L18.8932 25.3423L18.8953 25.3376L21.4603 19.2597H21.7615L26.2821 29.9697H19.4252V29.9704Z" fill="url(#paint4_linear_536_986)"/>
<path d="M49.0048 36.5419C48.6128 35.799 48.0252 35.1576 47.242 34.6168C46.4581 34.0768 45.4835 33.6618 44.3188 33.3718C43.1535 33.0825 41.7975 32.9378 40.2507 32.9378H33.4698V27.0039H47.1815V24.8335H29.1463L33.5022 35.1096H40.25C41.6968 35.1096 42.8368 35.4523 43.6707 36.137C44.5039 36.8224 44.9212 37.7822 44.9212 39.0171C44.9212 40.252 44.5039 41.2125 43.6707 41.8972C42.8368 42.5826 41.6968 42.9247 40.25 42.9247H34.8547H33.4691V41.3565V39.2591V37.6524H29.0991V45.0957H40.2493C41.796 45.0957 43.1521 44.9511 44.3174 44.6618C45.4827 44.3725 46.4574 43.9575 47.2406 43.4167C48.0238 42.8767 48.6121 42.2345 49.0034 41.4917C49.3953 40.7488 49.591 39.9242 49.591 39.0164C49.5924 38.11 49.396 37.2854 49.0048 36.5419Z" fill="url(#paint5_linear_536_986)"/>
<path d="M37.2693 35.1096L36.3447 32.9385H33.4693V27.0046H33.8163L32.8916 24.8335H29.1465L33.5024 35.1096H37.2693Z" fill="url(#paint6_linear_536_986)"/>
</g>
<defs>
<linearGradient id="paint0_linear_536_986" x1="0.5" y1="36.5" x2="76.5" y2="36.5" gradientUnits="userSpaceOnUse">
<stop offset="0.00201739" stop-color="#7B612F"/>
<stop offset="0.2191" stop-color="#BBA16F"/>
<stop offset="0.5304" stop-color="#D3BC89"/>
<stop offset="0.7983" stop-color="#907744"/>
<stop offset="1" stop-color="#795F2D"/>
</linearGradient>
<linearGradient id="paint1_linear_536_986" x1="2.85062" y1="36.5003" x2="74.1499" y2="36.5003" gradientUnits="userSpaceOnUse">
<stop offset="0.00201739" stop-color="#7B612F"/>
<stop offset="0.2191" stop-color="#BBA16F"/>
<stop offset="0.5304" stop-color="#D3BC89"/>
<stop offset="0.7983" stop-color="#907744"/>
<stop offset="1" stop-color="#795F2D"/>
</linearGradient>
<linearGradient id="paint2_linear_536_986" x1="46.6971" y1="45.3174" x2="62.7519" y2="50.2949" gradientUnits="userSpaceOnUse">
<stop offset="0.00201739" stop-color="#7B612F"/>
<stop offset="0.2191" stop-color="#BBA16F"/>
<stop offset="0.5304" stop-color="#D3BC89"/>
<stop offset="0.7983" stop-color="#907744"/>
<stop offset="1" stop-color="#795F2D"/>
</linearGradient>
<linearGradient id="paint3_linear_536_986" x1="49.2929" y1="38.0844" x2="52.2825" y2="37.4174" gradientUnits="userSpaceOnUse">
<stop/>
<stop offset="1" stop-opacity="0"/>
</linearGradient>
<linearGradient id="paint4_linear_536_986" x1="9.55683" y1="26.931" x2="33.6657" y2="26.931" gradientUnits="userSpaceOnUse">
<stop offset="0.00201739" stop-color="#7B612F"/>
<stop offset="0.2191" stop-color="#BBA16F"/>
<stop offset="0.5304" stop-color="#D3BC89"/>
<stop offset="0.7983" stop-color="#907744"/>
<stop offset="1" stop-color="#795F2D"/>
</linearGradient>
<linearGradient id="paint5_linear_536_986" x1="30.5756" y1="31.4949" x2="47.4871" y2="39.9021" gradientUnits="userSpaceOnUse">
<stop offset="0.00201739" stop-color="#7B612F"/>
<stop offset="0.2191" stop-color="#BBA16F"/>
<stop offset="0.5304" stop-color="#D3BC89"/>
<stop offset="0.7983" stop-color="#907744"/>
<stop offset="1" stop-color="#795F2D"/>
</linearGradient>
<linearGradient id="paint6_linear_536_986" x1="29.3517" y1="31.8015" x2="34.2777" y2="29.2675" gradientUnits="userSpaceOnUse">
<stop/>
<stop offset="1" stop-opacity="0"/>
</linearGradient>
<clipPath id="clip0_536_986">
<rect width="76" height="73" fill="white" transform="translate(0.5)"/>
</clipPath>
</defs>
</svg>
