<svg width="22" height="13" viewBox="0 0 22 13" fill="none" xmlns="http://www.w3.org/2000/svg">
<path d="M1 5.75C0.585786 5.75 0.25 6.08579 0.25 6.5C0.25 6.91421 0.585786 7.25 1 7.25V5.75ZM21.0303 7.03033C21.3232 6.73744 21.3232 6.26256 21.0303 5.96967L16.2574 1.1967C15.9645 0.903806 15.4896 0.903806 15.1967 1.1967C14.9038 1.48959 14.9038 1.96447 15.1967 2.25736L19.4393 6.5L15.1967 10.7426C14.9038 11.0355 14.9038 11.5104 15.1967 11.8033C15.4896 12.0962 15.9645 12.0962 16.2574 11.8033L21.0303 7.03033ZM1 7.25L20.5 7.25V5.75L1 5.75V7.25Z" fill="#236BFE"/>
</svg>
