<svg width="150" height="150" viewBox="0 0 150 150" fill="none" xmlns="http://www.w3.org/2000/svg">
<g filter="url(#filter0_d_536_1041)">
<circle cx="75" cy="71" r="25" fill="white"/>
</g>
<path d="M65 70.25C64.5858 70.25 64.25 70.5858 64.25 71C64.25 71.4142 64.5858 71.75 65 71.75V70.25ZM85.0303 71.5303C85.3232 71.2374 85.3232 70.7626 85.0303 70.4697L80.2574 65.6967C79.9645 65.4038 79.4896 65.4038 79.1967 65.6967C78.9038 65.9896 78.9038 66.4645 79.1967 66.7574L83.4393 71L79.1967 75.2426C78.9038 75.5355 78.9038 76.0104 79.1967 76.3033C79.4896 76.5962 79.9645 76.5962 80.2574 76.3033L85.0303 71.5303ZM65 71.75H84.5V70.25H65V71.75Z" fill="#111111"/>
<defs>
<filter id="filter0_d_536_1041" x="0" y="0" width="150" height="150" filterUnits="userSpaceOnUse" color-interpolation-filters="sRGB">
<feFlood flood-opacity="0" result="BackgroundImageFix"/>
<feColorMatrix in="SourceAlpha" type="matrix" values="0 0 0 0 0 0 0 0 0 0 0 0 0 0 0 0 0 0 127 0" result="hardAlpha"/>
<feOffset dy="4"/>
<feGaussianBlur stdDeviation="25"/>
<feComposite in2="hardAlpha" operator="out"/>
<feColorMatrix type="matrix" values="0 0 0 0 0.0666667 0 0 0 0 0.0666667 0 0 0 0 0.0666667 0 0 0 0.05 0"/>
<feBlend mode="normal" in2="BackgroundImageFix" result="effect1_dropShadow_536_1041"/>
<feBlend mode="normal" in="SourceGraphic" in2="effect1_dropShadow_536_1041" result="shape"/>
</filter>
</defs>
</svg>
