<svg width="50" height="51" viewBox="0 0 50 51" fill="none" xmlns="http://www.w3.org/2000/svg">
<circle cx="25" cy="25.5" r="25" fill="#111111"/>
<path d="M15 24.75C14.5858 24.75 14.25 25.0858 14.25 25.5C14.25 25.9142 14.5858 26.25 15 26.25V24.75ZM35.0303 26.0303C35.3232 25.7374 35.3232 25.2626 35.0303 24.9697L30.2574 20.1967C29.9645 19.9038 29.4896 19.9038 29.1967 20.1967C28.9038 20.4896 28.9038 20.9645 29.1967 21.2574L33.4393 25.5L29.1967 29.7426C28.9038 30.0355 28.9038 30.5104 29.1967 30.8033C29.4896 31.0962 29.9645 31.0962 30.2574 30.8033L35.0303 26.0303ZM15 26.25L34.5 26.25V24.75L15 24.75V26.25Z" fill="white"/>
</svg>
