<svg width="55" height="49" viewBox="0 0 55 49" fill="none" xmlns="http://www.w3.org/2000/svg">
<path d="M42.1524 0.000114441C45.9924 0.000114441 49.0906 1.55567 51.447 4.66678C53.716 7.77789 54.8506 12.0446 54.8506 17.4668C54.8506 24.3112 53.1488 30.4001 49.7451 35.7334C46.2542 41.0668 41.367 45.3335 35.0833 48.5334L31.156 41.0668C35.607 38.6668 39.0542 35.6001 41.4979 31.8668C43.8542 28.1334 45.0324 23.7779 45.0324 18.8001L42.9379 7.73345L50.2688 17.2001C49.1342 18.3557 47.8251 19.3334 46.3415 20.1334C44.7706 21.0223 43.2433 21.4668 41.7597 21.4668C38.7924 21.4668 36.3924 20.489 34.5597 18.5335C32.7269 16.6668 31.8106 14.2223 31.8106 11.2001C31.8106 7.82234 32.7706 5.11123 34.6906 3.06678C36.6106 1.02234 39.0979 0.000114441 42.1524 0.000114441ZM10.996 0.000114441C14.836 0.000114441 17.9342 1.55567 20.2906 4.66678C22.5597 7.77789 23.6942 12.0446 23.6942 17.4668C23.6942 24.3112 21.9924 30.4001 18.5888 35.7334C15.0979 41.0668 10.2106 45.3335 3.92695 48.5334L-0.000320435 41.0668C4.45059 38.6668 7.89786 35.6001 10.3415 31.8668C12.6979 28.1334 13.876 23.7779 13.876 18.8001L11.7815 7.73345L19.1124 17.2001C17.9779 18.3557 16.6688 19.3334 15.1851 20.1334C13.6142 21.0223 12.0869 21.4668 10.6033 21.4668C7.63604 21.4668 5.23604 20.489 3.40331 18.5335C1.57058 16.6668 0.654224 14.2223 0.654224 11.2001C0.654224 7.82234 1.61422 5.11123 3.53422 3.06678C5.45422 1.02234 7.94149 0.000114441 10.996 0.000114441Z" fill="url(#paint0_linear_536_1566)"/>
<path d="M42.1524 0.000114441C45.9924 0.000114441 49.0906 1.55567 51.447 4.66678C53.716 7.77789 54.8506 12.0446 54.8506 17.4668C54.8506 24.3112 53.1488 30.4001 49.7451 35.7334C46.2542 41.0668 41.367 45.3335 35.0833 48.5334L31.156 41.0668C35.607 38.6668 39.0542 35.6001 41.4979 31.8668C43.8542 28.1334 45.0324 23.7779 45.0324 18.8001L42.9379 7.73345L50.2688 17.2001C49.1342 18.3557 47.8251 19.3334 46.3415 20.1334C44.7706 21.0223 43.2433 21.4668 41.7597 21.4668C38.7924 21.4668 36.3924 20.489 34.5597 18.5335C32.7269 16.6668 31.8106 14.2223 31.8106 11.2001C31.8106 7.82234 32.7706 5.11123 34.6906 3.06678C36.6106 1.02234 39.0979 0.000114441 42.1524 0.000114441ZM10.996 0.000114441C14.836 0.000114441 17.9342 1.55567 20.2906 4.66678C22.5597 7.77789 23.6942 12.0446 23.6942 17.4668C23.6942 24.3112 21.9924 30.4001 18.5888 35.7334C15.0979 41.0668 10.2106 45.3335 3.92695 48.5334L-0.000320435 41.0668C4.45059 38.6668 7.89786 35.6001 10.3415 31.8668C12.6979 28.1334 13.876 23.7779 13.876 18.8001L11.7815 7.73345L19.1124 17.2001C17.9779 18.3557 16.6688 19.3334 15.1851 20.1334C13.6142 21.0223 12.0869 21.4668 10.6033 21.4668C7.63604 21.4668 5.23604 20.489 3.40331 18.5335C1.57058 16.6668 0.654224 14.2223 0.654224 11.2001C0.654224 7.82234 1.61422 5.11123 3.53422 3.06678C5.45422 1.02234 7.94149 0.000114441 10.996 0.000114441Z" fill="url(#paint1_radial_536_1566)" fill-opacity="0.3"/>
<path d="M42.1524 0.000114441C45.9924 0.000114441 49.0906 1.55567 51.447 4.66678C53.716 7.77789 54.8506 12.0446 54.8506 17.4668C54.8506 24.3112 53.1488 30.4001 49.7451 35.7334C46.2542 41.0668 41.367 45.3335 35.0833 48.5334L31.156 41.0668C35.607 38.6668 39.0542 35.6001 41.4979 31.8668C43.8542 28.1334 45.0324 23.7779 45.0324 18.8001L42.9379 7.73345L50.2688 17.2001C49.1342 18.3557 47.8251 19.3334 46.3415 20.1334C44.7706 21.0223 43.2433 21.4668 41.7597 21.4668C38.7924 21.4668 36.3924 20.489 34.5597 18.5335C32.7269 16.6668 31.8106 14.2223 31.8106 11.2001C31.8106 7.82234 32.7706 5.11123 34.6906 3.06678C36.6106 1.02234 39.0979 0.000114441 42.1524 0.000114441ZM10.996 0.000114441C14.836 0.000114441 17.9342 1.55567 20.2906 4.66678C22.5597 7.77789 23.6942 12.0446 23.6942 17.4668C23.6942 24.3112 21.9924 30.4001 18.5888 35.7334C15.0979 41.0668 10.2106 45.3335 3.92695 48.5334L-0.000320435 41.0668C4.45059 38.6668 7.89786 35.6001 10.3415 31.8668C12.6979 28.1334 13.876 23.7779 13.876 18.8001L11.7815 7.73345L19.1124 17.2001C17.9779 18.3557 16.6688 19.3334 15.1851 20.1334C13.6142 21.0223 12.0869 21.4668 10.6033 21.4668C7.63604 21.4668 5.23604 20.489 3.40331 18.5335C1.57058 16.6668 0.654224 14.2223 0.654224 11.2001C0.654224 7.82234 1.61422 5.11123 3.53422 3.06678C5.45422 1.02234 7.94149 0.000114441 10.996 0.000114441Z" fill="url(#paint2_linear_536_1566)" fill-opacity="0.5"/>
<path d="M42.1524 0.000114441C45.9924 0.000114441 49.0906 1.55567 51.447 4.66678C53.716 7.77789 54.8506 12.0446 54.8506 17.4668C54.8506 24.3112 53.1488 30.4001 49.7451 35.7334C46.2542 41.0668 41.367 45.3335 35.0833 48.5334L31.156 41.0668C35.607 38.6668 39.0542 35.6001 41.4979 31.8668C43.8542 28.1334 45.0324 23.7779 45.0324 18.8001L42.9379 7.73345L50.2688 17.2001C49.1342 18.3557 47.8251 19.3334 46.3415 20.1334C44.7706 21.0223 43.2433 21.4668 41.7597 21.4668C38.7924 21.4668 36.3924 20.489 34.5597 18.5335C32.7269 16.6668 31.8106 14.2223 31.8106 11.2001C31.8106 7.82234 32.7706 5.11123 34.6906 3.06678C36.6106 1.02234 39.0979 0.000114441 42.1524 0.000114441ZM10.996 0.000114441C14.836 0.000114441 17.9342 1.55567 20.2906 4.66678C22.5597 7.77789 23.6942 12.0446 23.6942 17.4668C23.6942 24.3112 21.9924 30.4001 18.5888 35.7334C15.0979 41.0668 10.2106 45.3335 3.92695 48.5334L-0.000320435 41.0668C4.45059 38.6668 7.89786 35.6001 10.3415 31.8668C12.6979 28.1334 13.876 23.7779 13.876 18.8001L11.7815 7.73345L19.1124 17.2001C17.9779 18.3557 16.6688 19.3334 15.1851 20.1334C13.6142 21.0223 12.0869 21.4668 10.6033 21.4668C7.63604 21.4668 5.23604 20.489 3.40331 18.5335C1.57058 16.6668 0.654224 14.2223 0.654224 11.2001C0.654224 7.82234 1.61422 5.11123 3.53422 3.06678C5.45422 1.02234 7.94149 0.000114441 10.996 0.000114441Z" fill="url(#paint3_linear_536_1566)" fill-opacity="0.5"/>
<path d="M42.1524 0.000114441C45.9924 0.000114441 49.0906 1.55567 51.447 4.66678C53.716 7.77789 54.8506 12.0446 54.8506 17.4668C54.8506 24.3112 53.1488 30.4001 49.7451 35.7334C46.2542 41.0668 41.367 45.3335 35.0833 48.5334L31.156 41.0668C35.607 38.6668 39.0542 35.6001 41.4979 31.8668C43.8542 28.1334 45.0324 23.7779 45.0324 18.8001L42.9379 7.73345L50.2688 17.2001C49.1342 18.3557 47.8251 19.3334 46.3415 20.1334C44.7706 21.0223 43.2433 21.4668 41.7597 21.4668C38.7924 21.4668 36.3924 20.489 34.5597 18.5335C32.7269 16.6668 31.8106 14.2223 31.8106 11.2001C31.8106 7.82234 32.7706 5.11123 34.6906 3.06678C36.6106 1.02234 39.0979 0.000114441 42.1524 0.000114441ZM10.996 0.000114441C14.836 0.000114441 17.9342 1.55567 20.2906 4.66678C22.5597 7.77789 23.6942 12.0446 23.6942 17.4668C23.6942 24.3112 21.9924 30.4001 18.5888 35.7334C15.0979 41.0668 10.2106 45.3335 3.92695 48.5334L-0.000320435 41.0668C4.45059 38.6668 7.89786 35.6001 10.3415 31.8668C12.6979 28.1334 13.876 23.7779 13.876 18.8001L11.7815 7.73345L19.1124 17.2001C17.9779 18.3557 16.6688 19.3334 15.1851 20.1334C13.6142 21.0223 12.0869 21.4668 10.6033 21.4668C7.63604 21.4668 5.23604 20.489 3.40331 18.5335C1.57058 16.6668 0.654224 14.2223 0.654224 11.2001C0.654224 7.82234 1.61422 5.11123 3.53422 3.06678C5.45422 1.02234 7.94149 0.000114441 10.996 0.000114441Z" fill="url(#paint4_linear_536_1566)"/>
<defs>
<linearGradient id="paint0_linear_536_1566" x1="71.1576" y1="102.803" x2="-41.6513" y2="66.296" gradientUnits="userSpaceOnUse">
<stop stop-color="#9F5B00"/>
<stop offset="0.463542" stop-color="#FFDE91"/>
<stop offset="1" stop-color="#FF9D00"/>
</linearGradient>
<radialGradient id="paint1_radial_536_1566" cx="0" cy="0" r="1" gradientUnits="userSpaceOnUse" gradientTransform="translate(54.8506 -26.0038) rotate(73.5661) scale(53.6481 59.5779)">
<stop stop-color="white"/>
<stop offset="1" stop-color="white" stop-opacity="0"/>
</radialGradient>
<linearGradient id="paint2_linear_536_1566" x1="47.0395" y1="54.2692" x2="45.9227" y2="38.4522" gradientUnits="userSpaceOnUse">
<stop stop-color="white"/>
<stop offset="1" stop-color="white" stop-opacity="0"/>
</linearGradient>
<linearGradient id="paint3_linear_536_1566" x1="55.3713" y1="26.9141" x2="46.3289" y2="25.6273" gradientUnits="userSpaceOnUse">
<stop stop-color="white"/>
<stop offset="1" stop-color="white" stop-opacity="0"/>
</linearGradient>
<linearGradient id="paint4_linear_536_1566" x1="50.8984" y1="32.5776" x2="7.75841" y2="8.61126" gradientUnits="userSpaceOnUse">
<stop offset="0.00201739" stop-color="#7B612F"/>
<stop offset="0.2191" stop-color="#BBA16F"/>
<stop offset="0.5304" stop-color="#D3BC89"/>
<stop offset="0.7983" stop-color="#907744"/>
<stop offset="1" stop-color="#795F2D"/>
</linearGradient>
</defs>
</svg>
