<svg width="50" height="50" viewBox="0 0 50 50" fill="none" xmlns="http://www.w3.org/2000/svg">
<circle cx="25" cy="25" r="25" transform="matrix(-1 0 0 1 50 0)" fill="white"/>
<path d="M35 24.25C35.4142 24.25 35.75 24.5858 35.75 25C35.75 25.4142 35.4142 25.75 35 25.75V24.25ZM14.9697 25.5303C14.6768 25.2374 14.6768 24.7626 14.9697 24.4697L19.7426 19.6967C20.0355 19.4038 20.5104 19.4038 20.8033 19.6967C21.0962 19.9896 21.0962 20.4645 20.8033 20.7574L16.5607 25L20.8033 29.2426C21.0962 29.5355 21.0962 30.0104 20.8033 30.3033C20.5104 30.5962 20.0355 30.5962 19.7426 30.3033L14.9697 25.5303ZM35 25.75H15.5V24.25H35V25.75Z" fill="#111111"/>
</svg>
