<svg width="84" height="83" viewBox="0 0 84 83" fill="none" xmlns="http://www.w3.org/2000/svg">
<path d="M11.1052 12.8336C11.1052 8.1669 15.0172 4.30023 19.7385 4.30023C24.4585 4.30023 28.3692 8.1669 28.3692 12.8336C28.3692 17.5002 24.4585 21.3669 19.7385 21.3669C14.8812 21.3669 11.1052 17.5002 11.1052 12.8336ZM38.6212 39.2336C38.6212 31.7669 32.6865 25.6336 24.7279 23.6336C28.7745 21.7669 31.7425 17.6336 31.7425 12.8336C31.7425 6.30023 26.3465 0.966896 19.7385 0.966896C13.1292 0.966896 7.7332 6.30023 7.7332 12.8336C7.7332 17.6336 10.5665 21.7669 14.7479 23.6336C6.78919 25.5002 0.854492 31.7669 0.854492 39.2336V53.6336C0.854492 54.5669 1.66388 55.3669 2.60788 55.3669H9.48652V80.8336C9.48652 81.7669 10.2959 82.5669 11.2412 82.5669C12.1852 82.5669 12.9932 81.7669 12.9932 80.8336V48.5669C12.9932 47.6336 12.1852 46.8336 11.2412 46.8336C10.2959 46.8336 9.48652 47.6336 9.48652 48.5669V51.9002H4.3612V39.1002C4.3612 32.0336 11.2412 26.3002 19.8719 26.3002C28.3692 26.3002 35.3839 32.0336 35.3839 39.1002V51.9002H30.2572V48.5669C30.2572 47.6336 29.4492 46.8336 28.5052 46.8336C27.5612 46.8336 26.7505 47.6336 26.7505 48.5669V80.8336C26.7505 81.7669 27.5612 82.5669 28.5052 82.5669C29.4492 82.5669 30.2572 81.7669 30.2572 80.8336V55.3669H37.1372C38.0812 55.3669 38.8905 54.5669 38.8905 53.6336L38.6212 39.2336Z" fill="#8C8C8C"/>
<path d="M19.6029 60.4336C18.6589 60.4336 17.8496 61.2336 17.8496 62.1669V80.8336C17.8496 81.7669 18.6589 82.5669 19.6029 82.5669C20.5469 82.5669 21.3576 81.7669 21.3576 80.8336V62.1669C21.3576 61.2336 20.5469 60.4336 19.6029 60.4336Z" fill="#8C8C8C"/>
<path d="M17.9844 38.4335H21.3577V41.7668H17.9844V38.4335Z" fill="#8C8C8C"/>
<path d="M79.7582 79.1002H72.8796C72.8796 76.4335 72.8796 24.0335 72.8796 21.3669H79.7582V79.1002ZM62.6288 45.1002H69.5076V79.1002H62.6288C62.6288 77.6335 62.6288 46.5669 62.6288 45.1002ZM52.2436 58.7002H59.1222V79.1002H52.2436C52.2436 74.9669 52.2436 63.3669 52.2436 58.7002ZM41.9915 63.9002H48.8702V79.2335H41.9915V63.9002ZM81.5115 18.0335H71.2609C70.3169 18.0335 69.5076 18.8335 69.5076 19.7669V41.9002H60.8742C59.9302 41.9002 59.1222 42.7002 59.1222 43.6335V55.5002H50.4889C49.5449 55.5002 48.7368 56.3002 48.7368 57.2335V60.5669H40.1035C39.1595 60.5669 38.3516 61.3669 38.3516 62.3002V80.9669C38.3516 81.9002 39.1595 82.7002 40.1035 82.7002C48.3315 82.7002 71.9356 82.7002 81.3769 82.7002C82.3209 82.7002 83.1302 81.9002 83.1302 80.9669V19.6335C83.2649 18.7002 82.4555 18.0335 81.5115 18.0335Z" fill="#8C8C8C"/>
</svg>
