<svg width="84" height="83" viewBox="0 0 84 83" fill="none" xmlns="http://www.w3.org/2000/svg">
<path d="M9.29225 22.9669C9.29225 19.2336 12.3936 16.1669 16.1709 16.1669C19.9469 16.1669 23.0495 19.2336 23.0495 22.9669C23.0495 26.7002 19.9469 29.7669 16.1709 29.7669C12.3936 29.7669 9.29225 26.7002 9.29225 22.9669ZM22.3749 31.1002C24.8016 29.2336 26.4202 26.3002 26.4202 22.9669C26.4202 17.3669 21.8349 12.8336 16.1709 12.8336C10.5056 12.8336 5.91888 17.3669 5.91888 22.9669C5.91888 26.3002 7.53756 29.2336 9.96556 31.1002C4.57089 33.5002 0.794922 38.8336 0.794922 45.1002V58.7002C0.794922 59.6336 1.60287 60.4336 2.54687 60.4336H7.53756V80.8336C7.53756 81.7669 8.34825 82.5669 9.29225 82.5669C10.2363 82.5669 11.0443 81.7669 11.0443 80.8336V53.5002C11.0443 52.5669 10.2363 51.7669 9.29225 51.7669C8.34825 51.7669 7.53756 52.5669 7.53756 53.5002V56.9669H4.16556V44.9669C4.16556 38.4336 9.56156 33.1002 16.1709 33.1002C22.7789 33.1002 28.1749 38.4336 28.1749 44.9669V56.9669H24.8016V53.6336C24.8016 52.7002 23.9935 51.9002 23.0495 51.9002C22.1042 51.9002 21.2962 52.7002 21.2962 53.6336V80.8336C21.2962 81.7669 22.1042 82.5669 23.0495 82.5669C23.9935 82.5669 24.8016 81.7669 24.8016 80.8336V60.3002H29.9269C30.8722 60.3002 31.6816 59.5002 31.6816 58.5669V44.9669C31.6816 38.8336 27.7696 33.3669 22.3749 31.1002Z" fill="#8C8C8C"/>
<path d="M16.1707 65.3669C15.2267 65.3669 14.416 66.1669 14.416 67.1003V80.7003C14.416 81.6336 15.2267 82.4336 16.1707 82.4336C17.1147 82.4336 17.9227 81.6336 17.9227 80.7003V67.1003C17.9227 66.1669 17.1147 65.3669 16.1707 65.3669Z" fill="#8C8C8C"/>
<path d="M14.416 43.3669H17.7894V46.7002H14.416V43.3669Z" fill="#8C8C8C"/>
<path d="M60.8148 22.9669C60.8148 19.2336 63.9162 16.1669 67.6935 16.1669C71.4695 16.1669 74.5735 19.2336 74.5735 22.9669C74.5735 26.7002 71.4695 29.7669 67.6935 29.7669C63.9162 29.7669 60.8148 26.7002 60.8148 22.9669ZM74.0322 31.1002C76.4615 29.2336 78.0788 26.3002 78.0788 22.9669C78.0788 17.3669 73.4935 12.8336 67.8282 12.8336C62.1642 12.8336 57.5775 17.3669 57.5775 22.9669C57.5775 26.3002 59.1962 29.2336 61.6242 31.1002C56.2295 33.5002 52.4521 38.8336 52.4521 45.1002V58.7002C52.4521 59.6336 53.2615 60.4336 54.2055 60.4336H59.3309V80.8336C59.3309 81.7669 60.1402 82.5669 61.0842 82.5669C62.0282 82.5669 62.8389 81.7669 62.8389 80.8336V53.5002C62.8389 52.5669 62.0282 51.7669 61.0842 51.7669C60.1402 51.7669 59.3309 52.5669 59.3309 53.5002V56.9669H55.9602V44.9669C55.9602 38.4336 61.3535 33.1002 67.9628 33.1002C74.5735 33.1002 79.9669 38.4336 79.9669 44.9669V56.9669H76.3255V53.6336C76.3255 52.7002 75.5175 51.9002 74.5735 51.9002C73.6295 51.9002 72.8188 52.7002 72.8188 53.6336V80.8336C72.8188 81.7669 73.6295 82.5669 74.5735 82.5669C75.5175 82.5669 76.3255 81.7669 76.3255 80.8336V60.3002H81.4521C82.3961 60.3002 83.2042 59.5002 83.2042 58.5669V44.9669C83.2042 38.8336 79.4282 33.3669 74.0322 31.1002Z" fill="#8C8C8C"/>
<path d="M67.6938 65.3669C66.7498 65.3669 65.9404 66.1669 65.9404 67.1003V80.7003C65.9404 81.6336 66.7498 82.4336 67.6938 82.4336C68.6378 82.4336 69.4471 81.6336 69.4471 80.7003V67.1003C69.4471 66.1669 68.6378 65.3669 67.6938 65.3669Z" fill="#8C8C8C"/>
<path d="M65.9404 43.3669H69.3124V46.7002H65.9404V43.3669Z" fill="#8C8C8C"/>
<path d="M47.0577 31.5002C43.1457 31.5002 40.1791 31.5002 36.8057 31.5002V29.7669H47.0577V31.5002ZM43.6844 38.3002H40.3137V34.9669H43.6844V38.3002ZM35.9977 22.8335C33.1657 20.9669 31.5457 17.7669 31.5457 14.4335C31.5457 8.83354 36.131 4.30021 41.7964 4.30021C47.463 4.30021 52.0484 8.83354 52.0484 14.4335C52.0484 17.7669 50.4297 20.8335 47.5964 22.8335C47.1924 23.1002 46.9217 23.6335 46.9217 24.1669V26.3002H43.551V16.1669C43.551 15.2335 42.7404 14.4335 41.7964 14.4335C40.8524 14.4335 40.043 15.2335 40.043 16.1669V26.3002H36.6724V24.1669C36.8057 23.6335 36.5364 23.1002 35.9977 22.8335ZM52.183 29.7669C53.127 29.7669 53.9364 28.9669 53.9364 28.0335C53.9364 27.1002 53.127 26.3002 52.183 26.3002H50.4297V24.9669C53.667 22.4335 55.555 18.4335 55.555 14.3002C55.555 6.83354 49.351 0.700211 41.7964 0.700211C34.243 0.700211 28.0391 6.83354 28.0391 14.3002C28.0391 18.4335 29.927 22.3002 33.1657 24.9669V26.3002H31.4111C30.4671 26.3002 29.6577 27.1002 29.6577 28.0335C29.6577 28.9669 30.4671 29.7669 31.4111 29.7669H33.1657V33.1002C33.1657 34.0335 33.9737 34.8335 34.9177 34.8335H36.6724V39.9002C36.6724 40.8335 37.4803 41.6335 38.4243 41.6335H45.3031C46.2471 41.6335 47.0577 40.8335 47.0577 39.9002V34.8335H48.8111C49.7551 34.8335 50.5644 34.0335 50.5644 33.1002V29.7669H52.183Z" fill="#8C8C8C"/>
</svg>
