<svg width="84" height="83" viewBox="0 0 84 83" fill="none" xmlns="http://www.w3.org/2000/svg">
<path d="M62.696 39.6333C61.752 39.6333 60.9426 40.4333 60.9426 41.3667C60.9426 51.6333 52.4453 60.0333 42.0597 60.0333C41.1154 60.0333 40.3066 60.8333 40.3066 61.7667C40.3066 62.7 41.1154 63.5 42.0597 63.5C54.3333 63.5 64.4493 53.6333 64.4493 41.3667C64.4493 40.4333 63.64 39.6333 62.696 39.6333Z" fill="#8C8C8C"/>
<path d="M43.8131 20.9668C43.8131 20.0334 43.0037 19.2334 42.0599 19.2334C29.7861 19.2334 19.6699 29.1001 19.6699 41.3668C19.6699 42.3001 20.4793 43.1001 21.423 43.1001C22.3678 43.1001 23.1771 42.3001 23.1771 41.3668C23.1771 31.1001 31.6741 22.7001 42.0599 22.7001C43.0037 22.7001 43.8131 21.9001 43.8131 20.9668Z" fill="#8C8C8C"/>
<path d="M79.8256 44.7001H70.7896C69.9803 44.7001 69.3056 45.2334 69.0363 46.1668C68.3616 50.0334 66.8776 53.6334 64.5843 56.8334C64.0456 57.5001 64.1803 58.4334 64.719 58.9668L71.059 65.2334L66.203 70.0334L59.8643 63.7668C59.3243 63.2334 58.3803 63.1001 57.7056 63.6334C54.4683 65.9001 50.827 67.3668 46.915 68.0334C46.1064 68.1668 45.4314 68.8334 45.4314 69.7668V78.7001H38.6882V69.7668C38.6882 68.9668 38.1486 68.3001 37.2043 68.0334C33.2928 67.3668 29.6512 65.9001 26.4143 63.6334C25.7398 63.1001 24.7955 63.2334 24.2559 63.7668L17.9168 70.0334L13.0611 65.2334L19.4007 58.9668C19.9398 58.4334 20.0752 57.5001 19.5351 56.8334C17.2423 53.6334 15.7586 50.0334 15.084 46.1668C14.9491 45.3668 14.2747 44.7001 13.331 44.7001H4.29338V38.0335H13.331C14.1403 38.0335 14.8143 37.5001 15.084 36.5668C15.7586 32.7001 17.2423 29.1001 19.5351 25.9001C20.0752 25.2335 19.9398 24.3001 19.4007 23.7668L13.0611 17.5001L17.9168 12.7001L24.2559 18.9668C24.7955 19.5001 25.7398 19.6334 26.4143 19.1001C29.6512 16.8335 33.2928 15.3668 37.2043 14.7001C38.0138 14.5668 38.6882 13.9001 38.6882 12.9668V4.03345H45.4314V12.9668C45.4314 13.7668 45.9715 14.4334 46.915 14.7001C50.827 15.3668 54.4683 16.8335 57.7056 19.1001C58.3803 19.6334 59.3243 19.5001 59.8643 18.9668L66.203 12.7001L71.059 17.5001L64.719 23.7668C64.1803 24.3001 64.0456 25.2335 64.5843 25.9001C66.8776 29.1001 68.3616 32.7001 69.0363 36.5668C69.171 37.3668 69.8456 38.0335 70.7896 38.0335H79.8256V44.7001ZM81.579 34.5668H72.2723C71.463 31.2335 70.115 28.0335 68.227 25.1001L74.835 18.5668C75.5097 17.9001 75.5097 16.8335 74.835 16.1668L67.5523 8.96678C66.8776 8.30012 65.7976 8.30012 65.1243 8.96678L58.515 15.5001C55.547 13.6335 52.311 12.3001 48.939 11.5001V2.30012C48.939 1.36678 48.1296 0.566788 47.1843 0.566788H36.9346C35.9903 0.566788 35.181 1.36678 35.181 2.30012V11.5001C31.809 12.3001 28.572 13.6335 25.6048 15.5001L18.9955 8.96678C18.321 8.30012 17.2423 8.30012 16.5679 8.96678L9.28458 16.1668C8.61004 16.8335 8.61004 17.9001 9.28458 18.5668L15.8934 25.1001C14.0054 28.0335 12.6564 31.2335 11.8471 34.5668H2.54032C1.59658 34.5668 0.787109 35.3668 0.787109 36.3001V46.4334C0.787109 47.3668 1.59658 48.1668 2.54032 48.1668H11.8471C12.6564 51.5001 14.0054 54.7001 15.7586 57.6334L9.14964 64.1668C8.47524 64.8334 8.47524 65.9001 9.14964 66.5668L16.433 73.7668C17.1075 74.4334 18.1862 74.4334 18.8606 73.7668L25.4695 67.2334C28.4367 69.1001 31.6742 70.4334 35.0466 71.1001V80.3001C35.0466 81.2334 35.8554 82.0334 36.7996 82.0334H47.0496C47.995 82.0334 48.8043 81.2334 48.8043 80.3001V71.1001C52.1763 70.3001 55.4123 68.9668 58.3803 67.2334L64.9896 73.7668C65.663 74.4334 66.743 74.4334 67.4176 73.7668L74.7003 66.5668C75.375 65.9001 75.375 64.8334 74.7003 64.1668L68.091 57.6334C69.9803 54.7001 71.3283 51.5001 72.1376 48.1668H81.4443C82.3883 48.1668 83.1976 47.3668 83.1976 46.4334V36.3001C83.3323 35.3668 82.523 34.5668 81.579 34.5668Z" fill="#8C8C8C"/>
<path d="M48.9386 49.9001H35.1806V46.5667C35.1806 42.8334 38.2826 39.7667 42.0597 39.7667C45.8363 39.7667 48.9386 42.8334 48.9386 46.5667V49.9001ZM38.6878 32.8334C38.6878 30.9667 40.1706 29.5001 42.0597 29.5001C43.9477 29.5001 45.431 30.9667 45.431 32.8334C45.431 34.7001 43.9477 36.1667 42.0597 36.1667C40.1706 36.3001 38.6878 34.7001 38.6878 32.8334ZM52.3106 51.5001V46.4334C52.3106 42.5667 50.1519 39.2334 47.0493 37.5001C48.2639 36.3001 48.9386 34.7001 48.9386 32.8334C48.9386 29.1001 45.8363 26.0334 42.0597 26.0334C38.2826 26.0334 35.1806 29.1001 35.1806 32.8334C35.1806 34.7001 35.855 36.3001 37.0686 37.5001C33.8315 39.2334 31.8086 42.5667 31.8086 46.4334V51.5001C31.8086 52.4334 32.6181 53.2334 33.5623 53.2334H50.6919C51.6359 53.2334 52.3106 52.4334 52.3106 51.5001Z" fill="#8C8C8C"/>
</svg>
