<svg width="50" height="51" viewBox="0 0 50 51" fill="none" xmlns="http://www.w3.org/2000/svg">
<circle cx="25" cy="25.3196" r="25" transform="rotate(90 25 25.3196)" fill="#111111"/>
<path d="M25.75 15.3196C25.75 14.9054 25.4142 14.5696 25 14.5696C24.5858 14.5696 24.25 14.9054 24.25 15.3196L25.75 15.3196ZM24.4697 35.3499C24.7626 35.6428 25.2374 35.6428 25.5303 35.3499L30.3033 30.5769C30.5962 30.284 30.5962 29.8092 30.3033 29.5163C30.0104 29.2234 29.5355 29.2234 29.2426 29.5163L25 33.7589L20.7574 29.5163C20.4645 29.2234 19.9896 29.2234 19.6967 29.5163C19.4038 29.8092 19.4038 30.284 19.6967 30.5769L24.4697 35.3499ZM24.25 15.3196L24.25 34.8196L25.75 34.8196L25.75 15.3196L24.25 15.3196Z" fill="white"/>
</svg>
