<svg width="50" height="51" viewBox="0 0 50 51" fill="none" xmlns="http://www.w3.org/2000/svg">
<circle cx="25" cy="25" r="25" transform="matrix(4.37114e-08 -1 -1 -4.37114e-08 50 50.6804)" fill="#111111"/>
<path d="M25.75 35.6804C25.75 36.0946 25.4142 36.4304 25 36.4304C24.5858 36.4304 24.25 36.0946 24.25 35.6804L25.75 35.6804ZM24.4697 15.6501C24.7626 15.3572 25.2374 15.3572 25.5303 15.6501L30.3033 20.4231C30.5962 20.716 30.5962 21.1908 30.3033 21.4837C30.0104 21.7766 29.5355 21.7766 29.2426 21.4837L25 17.2411L20.7574 21.4837C20.4645 21.7766 19.9896 21.7766 19.6967 21.4837C19.4038 21.1908 19.4038 20.716 19.6967 20.4231L24.4697 15.6501ZM24.25 35.6804L24.25 16.1804L25.75 16.1804L25.75 35.6804L24.25 35.6804Z" fill="white"/>
</svg>
