<svg width="50" height="51" viewBox="0 0 50 51" fill="none" xmlns="http://www.w3.org/2000/svg">
<circle cx="25" cy="25" r="24.5" transform="matrix(-1 0 0 1 50 0.180542)" stroke="#101010"/>
<path d="M35 24.4305C35.4142 24.4305 35.75 24.7663 35.75 25.1805C35.75 25.5948 35.4142 25.9305 35 25.9305V24.4305ZM14.9697 25.7109C14.6768 25.418 14.6768 24.9431 14.9697 24.6502L19.7426 19.8772C20.0355 19.5843 20.5104 19.5843 20.8033 19.8772C21.0962 20.1701 21.0962 20.645 20.8033 20.9379L16.5607 25.1805L20.8033 29.4232C21.0962 29.7161 21.0962 30.1909 20.8033 30.4838C20.5104 30.7767 20.0355 30.7767 19.7426 30.4838L14.9697 25.7109ZM35 25.9305H15.5V24.4305H35V25.9305Z" fill="#101010"/>
</svg>
