<svg width="22" height="12" viewBox="0 0 22 12" fill="none" xmlns="http://www.w3.org/2000/svg">
<path d="M1 5.25C0.585787 5.25 0.25 5.58579 0.25 6C0.25 6.41421 0.585786 6.75 1 6.75L1 5.25ZM21.0303 6.53033C21.3232 6.23744 21.3232 5.76257 21.0303 5.46967L16.2574 0.696702C15.9645 0.403808 15.4896 0.403808 15.1967 0.696702C14.9038 0.989595 14.9038 1.46447 15.1967 1.75736L19.4393 6L15.1967 10.2426C14.9038 10.5355 14.9038 11.0104 15.1967 11.3033C15.4896 11.5962 15.9645 11.5962 16.2574 11.3033L21.0303 6.53033ZM1 6.75L20.5 6.75L20.5 5.25L1 5.25L1 6.75Z" fill="#050505"/>
</svg>
