<svg width="44" height="39" viewBox="0 0 44 39" fill="none" xmlns="http://www.w3.org/2000/svg">
<path d="M33.8138 0C36.8942 0 39.3795 1.25 41.2697 3.75C43.0899 6.25 44 9.67857 44 14.0357C44 19.5357 42.6348 24.4286 39.9045 28.7143C37.1042 33 33.1838 36.4286 28.1432 39L24.9928 33C28.5632 31.0714 31.3286 28.6071 33.2888 25.6071C35.179 22.6071 36.1241 19.1071 36.1241 15.1071L34.4439 6.21429L40.3246 13.8214C39.4145 14.75 38.3644 15.5357 37.1742 16.1786C35.9141 16.8929 34.6889 17.25 33.4988 17.25C31.1185 17.25 29.1933 16.4643 27.7232 14.8929C26.253 13.3929 25.5179 11.4286 25.5179 9C25.5179 6.28571 26.288 4.10714 27.8282 2.46428C29.3683 0.821426 31.3636 0 33.8138 0ZM8.821 0C11.9014 0 14.3866 1.25 16.2768 3.75C18.0971 6.25 19.0072 9.67857 19.0072 14.0357C19.0072 19.5357 17.642 24.4286 14.9117 28.7143C12.1114 33 8.19093 36.4286 3.15036 39L0 33C3.5704 31.0714 6.33572 28.6071 8.29594 25.6071C10.1862 22.6071 11.1313 19.1071 11.1313 15.1071L9.45107 6.21429L15.3317 13.8214C14.4216 14.75 13.3715 15.5357 12.1814 16.1786C10.9212 16.8929 9.6961 17.25 8.50596 17.25C6.12569 17.25 4.20047 16.4643 2.73031 14.8929C1.26014 13.3929 0.525059 11.4286 0.525059 9C0.525059 6.28571 1.29515 4.10714 2.83532 2.46428C4.3755 0.821426 6.37072 0 8.821 0Z" fill="white"/>
</svg>
